<svg width="20" height="20" viewBox="0 0 20 20" fill="none" xmlns="http://www.w3.org/2000/svg">
<path d="M18.5298 3.33328C18.5298 4.8291 17.3174 6.04172 15.8216 6.04172C14.3257 6.04172 13.1133 4.8291 13.1133 3.33328C13.1133 1.83762 14.3257 0.625 15.8216 0.625C17.3174 0.625 18.5298 1.83762 18.5298 3.33328Z" fill="#3888FF"/>
<path d="M15.8216 6.66672C13.9832 6.66672 12.4883 5.17166 12.4883 3.33328C12.4883 1.49506 13.9832 0 15.8216 0C17.6599 0 19.1548 1.49506 19.1548 3.33328C19.1548 5.17166 17.6599 6.66672 15.8216 6.66672ZM15.8216 1.25C14.6724 1.25 13.7383 2.18506 13.7383 3.33328C13.7383 4.48166 14.6724 5.41672 15.8216 5.41672C16.9707 5.41672 17.9048 4.48166 17.9048 3.33328C17.9048 2.18506 16.9707 1.25 15.8216 1.25Z" fill="#3888FF"/>
<path d="M18.5298 16.6664C18.5298 18.1621 17.3174 19.3747 15.8216 19.3747C14.3257 19.3747 13.1133 18.1621 13.1133 16.6664C13.1133 15.1706 14.3257 13.958 15.8216 13.958C17.3174 13.958 18.5298 15.1706 18.5298 16.6664Z" fill="#3888FF"/>
<path d="M15.8216 19.9997C13.9832 19.9997 12.4883 18.5047 12.4883 16.6664C12.4883 14.8281 13.9832 13.333 15.8216 13.333C17.6599 13.333 19.1548 14.8281 19.1548 16.6664C19.1548 18.5047 17.6599 19.9997 15.8216 19.9997ZM15.8216 14.583C14.6724 14.583 13.7383 15.5181 13.7383 16.6664C13.7383 17.8147 14.6724 18.7497 15.8216 18.7497C16.9707 18.7497 17.9048 17.8147 17.9048 16.6664C17.9048 15.5181 16.9707 14.583 15.8216 14.583Z" fill="#3888FF"/>
<path d="M6.86203 10.0003C6.86203 11.4961 5.64941 12.7086 4.15359 12.7086C2.65793 12.7086 1.44531 11.4961 1.44531 10.0003C1.44531 8.50446 2.65793 7.29199 4.15359 7.29199C5.64941 7.29199 6.86203 8.50446 6.86203 10.0003Z" fill="#3888FF"/>
<path d="M4.15359 13.3336C2.31537 13.3336 0.820312 11.8387 0.820312 10.0003C0.820312 8.1619 2.31537 6.66699 4.15359 6.66699C5.99197 6.66699 7.48703 8.1619 7.48703 10.0003C7.48703 11.8387 5.99197 13.3336 4.15359 13.3336ZM4.15359 7.91699C3.00446 7.91699 2.07031 8.8519 2.07031 10.0003C2.07031 11.1487 3.00446 12.0836 4.15359 12.0836C5.30289 12.0836 6.23703 11.1487 6.23703 10.0003C6.23703 8.8519 5.30289 7.91699 4.15359 7.91699Z" fill="#3888FF"/>
<path d="M6.12323 9.60047C5.83316 9.60047 5.55148 9.44956 5.39813 9.17963C5.17062 8.78046 5.3107 8.27127 5.70987 8.04285L13.4423 3.63459C13.8414 3.4054 14.3506 3.54548 14.579 3.94618C14.8065 4.34535 14.6665 4.85453 14.2673 5.08295L6.53476 9.49121C6.40475 9.56537 6.26315 9.60047 6.12323 9.60047Z" fill="#3888FF"/>
<path d="M13.854 16.4753C13.7139 16.4753 13.5723 16.4402 13.4423 16.3661L5.70975 11.9578C5.31058 11.7303 5.17066 11.2211 5.39817 10.821C5.62476 10.4211 6.13471 10.2802 6.53479 10.5094L14.2673 14.9177C14.6665 15.1452 14.8064 15.6544 14.5789 16.0545C14.4248 16.3244 14.1431 16.4753 13.854 16.4753Z" fill="#3888FF"/>
</svg>
