<svg width="119" height="119" viewBox="0 0 119 119" fill="none" xmlns="http://www.w3.org/2000/svg">
<path d="M102.116 62.7317L74.8411 58.811L62.5676 34.0934C61.747 32.3987 59.7077 31.6903 58.013 32.5113C57.3226 32.8457 56.765 33.403 56.4309 34.0934L44.1574 58.811L16.8826 62.7317C15.5909 62.9382 14.5311 63.8652 14.1552 65.1181C13.8237 66.3254 14.1468 67.6181 15.0075 68.5275L34.7816 87.7903L30.179 114.894C29.9718 116.195 30.4955 117.505 31.5429 118.304C32.5743 119.088 33.9616 119.221 35.1226 118.645L59.4992 105.689L83.8759 118.645L85.4101 118.986C86.1566 119.049 86.8963 118.802 87.4556 118.304C88.5026 117.505 89.0266 116.195 88.8194 114.894L84.2169 87.7903L103.991 68.5275C104.852 67.6181 105.175 66.3254 104.843 65.1181C104.467 63.8655 103.408 62.9382 102.116 62.7317ZM78.0801 84.2106C77.3825 85.0035 77.0706 86.0642 77.2279 87.1087L80.9782 109.269L61.0334 98.8709C60.0624 98.4102 58.9361 98.4102 57.9651 98.8709L38.0203 109.269L41.7706 87.1087C41.9279 86.0642 41.6159 85.0038 40.9184 84.2106L24.7239 68.5278L47.0551 65.2888C48.1527 65.0959 49.0983 64.4026 49.6122 63.4136L59.4992 43.2985L69.3863 63.4136C69.9002 64.4026 70.8454 65.0959 71.9434 65.2888L94.2746 68.5278L78.0801 84.2106Z" fill="#FA7C44"/>
<path d="M59.4992 23.8654C61.3822 23.8654 62.9085 22.339 62.9085 20.456V3.40934C62.9085 1.52636 61.3818 0 59.4992 0C57.6165 0 56.0898 1.52636 56.0898 3.40934V20.456C56.0898 22.339 57.6162 23.8654 59.4992 23.8654Z" fill="#FA7C44"/>
<path d="M110.981 18.0696C109.475 16.9397 107.338 17.2451 106.208 18.7515L95.9799 32.3889C94.8503 33.8954 95.1553 36.0322 96.6618 37.1621C97.2458 37.6163 97.9676 37.8571 98.7073 37.844C99.7742 37.8189 100.774 37.3187 101.435 36.4802L111.663 22.8428C112.793 21.3364 112.488 19.1992 110.981 18.0696Z" fill="#FA7C44"/>
<path d="M20.2917 37.8437C21.0314 37.8568 21.7535 37.616 22.3372 37.1618C23.8437 36.0319 24.1487 33.895 23.0191 32.3886L12.7914 18.7512C11.6615 17.2448 9.52469 16.9397 8.01824 18.0693C6.51179 19.1989 6.20671 21.336 7.33631 22.8425L17.5643 36.4798C18.2247 37.3184 19.2248 37.8183 20.2917 37.8437Z" fill="#FA7C44"/>
</svg>
