<svg width="42" height="63" viewBox="0 0 42 63" fill="none" xmlns="http://www.w3.org/2000/svg">
<g clip-path="url(#clip0)">
<path d="M20.9986 24.6201C18.2035 24.6201 15.9297 26.8939 15.9297 29.6891C15.9297 32.4842 18.2035 34.758 20.9986 34.758C23.7938 34.758 26.0676 32.4842 26.0676 29.6891C26.0676 26.8939 23.7938 24.6201 20.9986 24.6201Z" fill="#FF496F"/>
<path d="M28.9674 15.9307C26.1723 15.9307 23.8984 18.2045 23.8984 20.9996C23.8984 23.7948 26.1723 26.0686 28.9674 26.0686C31.7625 26.0686 34.0364 23.7948 34.0364 20.9996C34.0364 18.2045 31.7626 15.9307 28.9674 15.9307Z" fill="#FF496F"/>
<path d="M36.9322 7.24121C34.1371 7.24121 31.8633 9.51504 31.8633 12.3102C31.8633 15.1053 34.1371 17.3791 36.9322 17.3791C39.7275 17.3791 42.0012 15.1053 42.0012 12.3102C42.0012 9.51504 39.7274 7.24121 36.9322 7.24121Z" fill="#FF496F"/>
<path d="M18.1028 20.9996C18.1028 18.2045 15.829 15.9307 13.0339 15.9307C10.2388 15.9307 7.96484 18.2045 7.96484 20.9996C7.96484 23.7948 10.2387 26.0686 13.0338 26.0686C15.8289 26.0686 18.1028 23.7948 18.1028 20.9996Z" fill="#FF496F"/>
<path d="M10.1379 12.3102C10.1379 9.51504 7.86409 7.24121 5.06896 7.24121C2.27382 7.24121 0 9.51495 0 12.3102C0 15.1054 2.27382 17.3791 5.06896 17.3791C7.86409 17.3791 10.1379 15.1053 10.1379 12.3102Z" fill="#FF496F"/>
<path d="M20.9986 45.6201C18.2035 45.6201 15.9297 47.8939 15.9297 50.6891C15.9297 53.4842 18.2035 55.758 20.9986 55.758C23.7938 55.758 26.0676 53.4842 26.0676 50.6891C26.0676 47.8939 23.7938 45.6201 20.9986 45.6201Z" fill="#8BD231"/>
<path d="M28.9674 36.9307C26.1723 36.9307 23.8984 39.2045 23.8984 41.9996C23.8984 44.7948 26.1723 47.0686 28.9674 47.0686C31.7625 47.0686 34.0364 44.7948 34.0364 41.9996C34.0364 39.2045 31.7626 36.9307 28.9674 36.9307Z" fill="#8BD231"/>
<path d="M36.9322 28.2412C34.1371 28.2412 31.8633 30.515 31.8633 33.3102C31.8633 36.1053 34.1371 38.3791 36.9322 38.3791C39.7275 38.3791 42.0012 36.1053 42.0012 33.3102C42.0012 30.515 39.7274 28.2412 36.9322 28.2412Z" fill="#8BD231"/>
<path d="M18.1028 41.9996C18.1028 39.2045 15.829 36.9307 13.0339 36.9307C10.2388 36.9307 7.96484 39.2045 7.96484 41.9996C7.96484 44.7948 10.2387 47.0686 13.0338 47.0686C15.8289 47.0686 18.1028 44.7948 18.1028 41.9996Z" fill="#8BD231"/>
<path d="M10.1379 33.3102C10.1379 30.515 7.86409 28.2412 5.06896 28.2412C2.27382 28.2412 0 30.515 0 33.3102C0 36.1054 2.27382 38.3791 5.06896 38.3791C7.86409 38.3791 10.1379 36.1053 10.1379 33.3102Z" fill="#8BD231"/>
</g>
<defs>
<clipPath id="clip0">
<rect width="42" height="63" fill="white"/>
</clipPath>
</defs>
</svg>
