<svg width="8" height="6" viewBox="0 0 8 6" fill="none" xmlns="http://www.w3.org/2000/svg">
<path d="M7.87213 1.03263L7.61008 0.768753C7.52761 0.686346 7.41788 0.640947 7.30061 0.640947C7.18341 0.640947 7.07355 0.686346 6.99108 0.768753L4.00179 3.75818L1.00905 0.765436C0.926707 0.683029 0.816852 0.637695 0.699648 0.637695C0.582444 0.637695 0.472524 0.683029 0.390117 0.765436L0.128001 1.02768C-0.042667 1.19822 -0.042667 1.47601 0.128001 1.64655L3.69122 5.22258C3.77356 5.30492 3.88328 5.36294 4.00153 5.36294H4.00289C4.12016 5.36294 4.22989 5.30485 4.31223 5.22258L7.87213 1.65624C7.9546 1.5739 7.99987 1.46086 8 1.34365C8 1.22638 7.9546 1.1149 7.87213 1.03263Z" fill="black"/>
</svg>
