<svg width="13" height="13" viewBox="0 0 13 13" fill="none" xmlns="http://www.w3.org/2000/svg">
<path d="M12.6191 2.3674H12.0674L11.4226 1.07773C11.3548 0.942148 11.213 0.859679 11.0617 0.867728C8.56758 1.0006 6.57574 1.73657 6.5 1.75658C6.35558 1.71847 4.50907 1.00468 1.93832 0.867753C1.78722 0.859704 1.64521 0.942173 1.57742 1.07776L0.932572 2.3674H0.380859C0.170523 2.3674 0 2.53792 0 2.74826V10.3654C0 10.5758 0.170523 10.7463 0.380859 10.7463H1.04437C2.53693 10.7463 4.0124 10.9758 5.43316 11.4284C5.60894 11.8575 6.01341 12.1325 6.5 12.1325C6.98659 12.1325 7.39106 11.8575 7.56684 11.4284C8.98762 10.9758 10.4631 10.7463 11.9556 10.7463H12.6191C12.8295 10.7463 13 10.5758 13 10.3654V2.74826C13 2.53792 12.8295 2.3674 12.6191 2.3674ZM2.14614 1.64356C4.52623 1.80769 6.18584 2.46688 6.37952 2.51936C6.45772 2.54544 6.54228 2.54544 6.62048 2.51936C6.809 2.46828 8.48093 1.80718 10.8539 1.64356L11.2246 2.38502C9.83816 2.45139 8.47069 2.70644 7.1497 3.14593C7.14939 3.14603 7.14909 3.14613 7.14878 3.14623C7.00601 3.19379 6.91481 3.30236 6.88825 3.4353C6.8413 3.66999 6.65691 3.7536 6.49997 3.7536C6.34303 3.7536 6.15865 3.66999 6.1117 3.4353C6.08524 3.30271 5.99376 3.19366 5.85099 3.14615C5.85076 3.14608 5.85056 3.146 5.85033 3.14593C4.52933 2.70644 3.16182 2.45137 1.77536 2.38499L2.14614 1.64356ZM0.761719 9.98459V3.12912H1.04437C2.51045 3.12912 3.95995 3.3504 5.35742 3.78719V10.6083C3.95672 10.1942 2.50831 9.98459 1.04437 9.98459H0.761719ZM6.5 11.3708C6.35007 11.3708 6.17538 11.2941 6.11914 11.0826V4.45484C6.35786 4.5339 6.63244 4.5371 6.88086 4.45484V11.0826C6.82462 11.2941 6.64993 11.3708 6.5 11.3708ZM12.2383 9.98459H11.9556C10.4917 9.98459 9.04325 10.1942 7.64258 10.6083V3.78722C9.04005 3.3504 10.4896 3.12914 11.9556 3.12914H12.2383V9.98459Z" fill="#C2C6FF"/>
</svg>
