<svg width="12" height="12" viewBox="0 0 12 12" fill="none" xmlns="http://www.w3.org/2000/svg">
<g clip-path="url(#clip0)">
<path d="M5.99994 0C2.69157 0 0 2.69151 0 5.99983C0 9.30837 2.69157 12 5.99994 12C9.30826 12 11.9998 9.30831 11.9998 5.99983C11.9998 2.69151 9.30826 0 5.99994 0ZM5.99994 11.1399C3.16583 11.1399 0.860092 8.83406 0.860092 5.99983C0.860092 3.16577 3.16583 0.860092 5.99994 0.860092C8.834 0.860092 11.1397 3.16577 11.1397 5.99983C11.1397 8.83406 8.834 11.1399 5.99994 11.1399Z" fill="#C2C6FF"/>
<path d="M9.08594 5.89985H6.26634V2.81774C6.26634 2.58024 6.07385 2.3877 5.8363 2.3877C5.5988 2.3877 5.40625 2.58024 5.40625 2.81774V6.3299C5.40625 6.5674 5.5988 6.75994 5.8363 6.75994H9.08594C9.3235 6.75994 9.51599 6.5674 9.51599 6.3299C9.51599 6.0924 9.32344 5.89985 9.08594 5.89985Z" fill="#C2C6FF"/>
</g>
<defs>
<clipPath id="clip0">
<rect width="12" height="12" fill="white"/>
</clipPath>
</defs>
</svg>
