<svg width="20" height="20" viewBox="0 0 20 20" fill="none" xmlns="http://www.w3.org/2000/svg">
<path d="M15.7728 8.94533L14.8941 7.94533C14.6514 7.66933 14.2314 7.64267 13.9541 7.884L11.3341 10.18V0.666667C11.3341 0.298667 11.0354 0 10.6674 0H9.3341C8.9661 0 8.66743 0.298667 8.66743 0.666667V10.18L6.04743 7.884C5.77143 7.64267 5.35143 7.66933 5.10743 7.94533L4.22877 8.944C3.98477 9.22133 4.01277 9.644 4.2901 9.88667L9.5621 14.5013C9.8141 14.7213 10.1888 14.7213 10.4408 14.5013L15.7114 9.88667C15.9888 9.644 16.0168 9.22133 15.7728 8.94533Z" fill="white"/>
<path d="M17.3333 17.333H2.66667C2.29867 17.333 2 17.6317 2 17.9997V19.333C2 19.701 2.29867 19.9997 2.66667 19.9997H17.3333C17.7013 19.9997 18 19.701 18 19.333V17.9997C18 17.6317 17.7013 17.333 17.3333 17.333Z" fill="white"/>
</svg>
