<svg width="7" height="13" viewBox="0 0 7 13" fill="none" xmlns="http://www.w3.org/2000/svg">
<path d="M1.64634 2.50872C1.64634 2.42769 1.65759 2.25267 1.6801 1.98481C1.7043 1.71638 1.8056 1.43557 1.98736 1.14069C2.16744 0.846933 2.45951 0.583005 2.86581 0.349465C3.27042 0.117051 3.85512 0 4.6182 0H6.76789V2.34271H5.19389C5.03801 2.34271 4.89282 2.40124 4.7617 2.5166C4.63171 2.63196 4.56474 2.7417 4.56474 2.84356V4.30107H6.76733C6.74426 4.58638 6.71893 4.86382 6.68967 5.13168L6.60244 5.83962C6.56755 6.07878 6.5321 6.30051 6.49721 6.50478H4.54898V13H1.64634V6.50422H0.230469V4.30107H1.64634V2.50872Z" fill="#72738E"/>
</svg>
