<svg width="13" height="13" viewBox="0 0 13 13" fill="none" xmlns="http://www.w3.org/2000/svg">
<g clip-path="url(#clip0)">
<path d="M6.49995 0C4.7076 0 3.25 1.4576 3.25 3.24995C3.25 5.0423 4.7076 6.4999 6.49995 6.4999C8.2923 6.4999 9.7499 5.0423 9.7499 3.24995C9.7499 1.4576 8.2923 0 6.49995 0ZM6.49995 4.87492C5.60378 4.87492 4.87497 4.14612 4.87497 3.24995C4.87497 2.35378 5.60378 1.62497 6.49995 1.62497C7.39612 1.62497 8.12492 2.35378 8.12492 3.24995C8.12492 4.14612 7.39612 4.87492 6.49995 4.87492Z" fill="#72738E"/>
<path d="M10.8094 6.40965C10.4918 6.09197 9.97826 6.09197 9.66058 6.40965C7.91861 8.15163 5.08303 8.15163 3.34024 6.40965C3.02256 6.09197 2.50907 6.09197 2.19139 6.40965C1.8737 6.72733 1.8737 7.24083 2.19139 7.55932C3.20212 8.57006 4.48341 9.14612 5.80452 9.29643L3.48812 11.6128C3.17043 11.9305 3.17043 12.444 3.48812 12.7617C3.8058 13.0794 4.31929 13.0794 4.63697 12.7617L6.50001 10.8987L8.36304 12.7617C8.52147 12.9201 8.72947 12.9998 8.93747 12.9998C9.14547 12.9998 9.35346 12.9201 9.5119 12.7617C9.82958 12.444 9.82958 11.9305 9.5119 11.6128L7.1955 9.29643C8.5166 9.14612 9.79789 8.57006 10.8086 7.55932C11.1263 7.24164 11.1263 6.72733 10.8094 6.40965Z" fill="#72738E"/>
</g>
<defs>
<clipPath id="clip0">
<rect width="13" height="13" fill="white"/>
</clipPath>
</defs>
</svg>
