<svg width="20" height="20" viewBox="0 0 20 20" fill="none" xmlns="http://www.w3.org/2000/svg">
<path d="M5.89119 12.8671C5.89119 12.535 5.66072 12.3369 5.25408 12.3369C5.08803 12.3369 4.97557 12.3533 4.91675 12.369V13.4346C4.9864 13.4503 5.07201 13.4556 5.19003 13.4556C5.62347 13.4556 5.89119 13.2366 5.89119 12.8671Z" fill="#3888FF"/>
<path d="M8.40834 12.3486C8.22623 12.3486 8.10855 12.3644 8.03894 12.3807V14.7408C8.10859 14.7571 8.22105 14.7571 8.32272 14.7571C9.06147 14.7624 9.54328 14.3557 9.54328 13.4941C9.5485 12.7448 9.10946 12.3486 8.40834 12.3486Z" fill="#3888FF"/>
<path d="M13.0859 0H5.05306C3.87955 0 2.92443 0.95578 2.92443 2.12863V9.99996H2.71652C2.24289 9.99996 1.85876 10.3837 1.85876 10.8578V16.0597C1.85876 16.5337 2.24284 16.9175 2.71652 16.9175H2.92443V17.8713C2.92443 19.0455 3.87955 20 5.05306 20H16.0135C17.1863 20 18.1415 19.0454 18.1415 17.8713V5.03791L13.0859 0ZM4.10902 11.7965C4.3604 11.7541 4.71374 11.722 5.21157 11.722C5.71466 11.722 6.07323 11.8181 6.31415 12.011C6.54429 12.1927 6.6996 12.4928 6.6996 12.8459C6.6996 13.1989 6.58192 13.499 6.36779 13.7023C6.08928 13.9644 5.67741 14.0821 5.1956 14.0821C5.08837 14.0821 4.99225 14.0768 4.91709 14.0664V15.3563H4.10902V11.7965ZM16.0135 18.6964H5.05306C4.59867 18.6964 4.22866 18.3263 4.22866 17.8713V16.9175H14.446C14.9197 16.9175 15.3038 16.5337 15.3038 16.0597V10.8578C15.3038 10.3837 14.9197 9.99996 14.446 9.99996H4.22866V2.12863C4.22866 1.67491 4.59872 1.30489 5.05306 1.30489L12.5982 1.29701V4.08595C12.5982 4.90057 13.2591 5.56216 14.0744 5.56216L16.8065 5.55432L16.8372 17.8713C16.8372 18.3263 16.4678 18.6964 16.0135 18.6964ZM7.22065 15.34V11.7965C7.52036 11.7488 7.91099 11.722 8.32324 11.722C9.00835 11.722 9.45262 11.8449 9.80073 12.1071C10.1754 12.3856 10.4107 12.8295 10.4107 13.4669C10.4107 14.1573 10.1593 14.6339 9.81114 14.928C9.4313 15.2438 8.85308 15.3935 8.14669 15.3935C7.72366 15.3935 7.42395 15.3667 7.22065 15.34ZM13.0624 13.242V13.9056H11.7669V15.3563H10.9481V11.7488H13.1532V12.4176H11.7669V13.242H13.0624Z" fill="#3888FF"/>
</svg>
