<svg width="12" height="12" viewBox="0 0 12 12" fill="none" xmlns="http://www.w3.org/2000/svg">
<path d="M6 0C2.7 0 0 2.7 0 6C0 9.3 2.7 12 6 12C9.3 12 12 9.3 12 6C12 2.7 9.3 0 6 0ZM10.05 9.3C9.825 9.225 9.675 9.075 9.45 9.075L7.8 8.775C7.65 8.775 7.5 8.55 7.5 8.4V8.025C7.575 7.875 7.725 7.65 7.8 7.5C7.875 7.35 8.025 7.125 8.1 7.05C8.4 6.75 8.775 6.375 8.85 5.85C8.925 5.4 8.85 5.175 8.775 4.95C8.775 4.5 8.775 3.9 8.625 3.45C8.625 2.85 8.475 2.55 8.25 2.25C8.025 2.025 7.8 2.025 7.575 1.95C7.5 1.95 7.35 1.95 7.35 1.875C6.825 1.65 6.45 1.5 6 1.5C5.025 1.575 3.75 2.175 3.375 3.3C3.225 3.6 3.225 4.2 3.3 4.65V4.95C3.15 5.1 3.075 5.325 3.15 5.775C3.225 6.225 3.6 6.6 3.9 6.975C3.975 7.05 4.05 7.275 4.2 7.425C4.275 7.65 4.425 7.8 4.5 7.95V8.325C4.5 8.475 4.35 8.625 4.2 8.7L2.55 9C2.325 9.075 2.1 9.15 1.95 9.225C1.2 8.4 0.75 7.275 0.75 6C0.75 3.075 3.075 0.75 6 0.75C8.925 0.75 11.25 3.075 11.25 6C11.25 7.275 10.8 8.4 10.05 9.3Z" fill="#3888FF"/>
</svg>
