<svg width="55" height="55" viewBox="0 0 55 55" fill="none" xmlns="http://www.w3.org/2000/svg">
<path d="M27.5 0C12.3368 0 0 12.3368 0 27.5C0 42.6632 12.3368 55 27.5 55C42.6632 55 55 42.6632 55 27.5C55 12.3368 42.6632 0 27.5 0ZM27.5 51.5626C14.2318 51.5626 3.43754 40.7683 3.43754 27.5001C3.43754 14.2319 14.2318 3.43754 27.5 3.43754C40.7682 3.43754 51.5626 14.2318 51.5626 27.5C51.5626 40.7682 40.7682 51.5626 27.5 51.5626Z" fill="#3888FF"/>
<path d="M13.75 25.7812H41.25V29.2188H13.75V25.7812Z" fill="#3888FF"/>
</svg>
