<svg width="20" height="20" viewBox="0 0 20 20" fill="none" xmlns="http://www.w3.org/2000/svg">
<path d="M18.5721 5.71387H1.42862C0.640023 5.71387 0 6.34746 0 7.13678V14.2799H2.85724V17.14C2.85724 17.9279 3.49584 18.5658 4.28301 18.5658H15.7127C16.5027 18.5658 17.1428 17.9257 17.1428 17.1357V14.2799H20V7.14249C20.0007 6.35389 19.3607 5.71387 18.5721 5.71387ZM2.85724 8.57111H1.42862V7.14249H2.85724V8.57111ZM15.7148 17.1428H4.28587V9.99402H15.7148V17.1428Z" fill="#3888FF"/>
<path d="M17.1436 1.43359H2.85742V4.27941H17.1436V1.43359Z" fill="#3888FF"/>
<path d="M14.2866 11.4287H5.71484V12.8573H14.2866V11.4287Z" fill="#3888FF"/>
<path d="M14.2866 14.2861H5.71484V15.7148H14.2866V14.2861Z" fill="#3888FF"/>
</svg>
