<svg width="14" height="14" viewBox="0 0 14 14" fill="none" xmlns="http://www.w3.org/2000/svg">
<path d="M13.1796 7.48166V6.18065C13.1796 5.95414 12.996 5.7705 12.7695 5.7705C11.9222 5.7705 11.1322 5.842 10.3858 5.98802C9.95078 5.56788 9.4204 5.26305 8.84604 5.09645C9.47232 4.56934 9.87105 3.78012 9.87105 2.89941C9.87105 1.3012 8.58308 0.000976562 6.99996 0.000976562C5.41684 0.000976562 4.12887 1.3012 4.12887 2.89941C4.12887 3.78012 4.5276 4.56934 5.1539 5.09642C4.57955 5.26305 4.04916 5.56788 3.6141 5.98799C2.86775 5.842 2.07779 5.77047 1.23047 5.77047C1.00395 5.77047 0.820311 5.95411 0.820311 6.18062V7.48164C0.342917 7.65095 0 8.10685 0 8.64156V9.46187C0 9.99657 0.342917 10.4525 0.820311 10.6218V11.9228C0.820311 12.1493 1.00395 12.333 1.23047 12.333C3.37501 12.333 5.13602 12.8411 6.77249 13.932C6.90962 14.0234 7.09025 14.0236 7.22751 13.932C8.86398 12.8411 10.625 12.333 12.7695 12.333C12.996 12.333 13.1797 12.1493 13.1797 11.9228V10.6218C13.6571 10.4525 14 9.99657 14 9.46187V8.64156C13.9999 8.10688 13.657 7.65098 13.1796 7.48166ZM4.94918 2.89941C4.94918 1.75352 5.86916 0.821287 6.99996 0.821287C8.13076 0.821287 9.05074 1.75352 9.05074 2.89941C9.05074 4.03021 8.13076 4.95019 6.99996 4.95019C5.86916 4.95019 4.94918 4.03021 4.94918 2.89941ZM1.23044 9.87205C1.00428 9.87205 0.820284 9.68806 0.820284 9.46189V8.64158C0.820284 8.41542 1.00428 8.23143 1.23044 8.23143C1.4566 8.23143 1.64059 8.41542 1.64059 8.64158V9.46189C1.64059 9.68806 1.4566 9.87205 1.23044 9.87205ZM6.5898 12.8548C5.10086 12.0033 3.50308 11.573 1.64059 11.5186V10.6218C2.11799 10.4525 2.46091 9.9966 2.46091 9.46189V8.64158C2.46091 8.10688 2.11799 7.65098 1.64059 7.48166V6.5966C3.56781 6.65192 5.11691 7.10574 6.5898 8.04352V12.8548ZM6.99996 7.33289C6.24292 6.85522 5.45493 6.49152 4.61373 6.23594C5.07595 5.93554 5.62006 5.7705 6.17965 5.7705H7.82027C8.37986 5.7705 8.92397 5.93554 9.38619 6.23594C8.54499 6.49152 7.75697 6.85522 6.99996 7.33289ZM12.3593 11.5186C10.4969 11.573 8.89903 12.0034 7.41011 12.8549V8.04385C8.88304 7.10599 10.432 6.65189 12.3593 6.5966V7.48166C11.8819 7.65098 11.539 8.10688 11.539 8.64158V9.46189C11.539 9.9966 11.8819 10.4525 12.3593 10.6218V11.5186ZM13.1796 9.46189C13.1796 9.68806 12.9956 9.87205 12.7695 9.87205C12.5433 9.87205 12.3593 9.68806 12.3593 9.46189V8.64158C12.3593 8.41542 12.5433 8.23143 12.7695 8.23143C12.9956 8.23143 13.1796 8.41542 13.1796 8.64158V9.46189Z" fill="#C2C6FF"/>
</svg>
