<svg width="20" height="20" viewBox="0 0 20 20" fill="none" xmlns="http://www.w3.org/2000/svg">
<path d="M9.44851 0.802551C9.55206 0.592769 9.7657 0.459961 9.99967 0.459961C10.2336 0.45992 10.4473 0.592728 10.5509 0.802511L12.9483 5.65944C13.1737 6.11613 13.6094 6.43275 14.1135 6.50595L19.4737 7.28515C19.7052 7.31883 19.8975 7.48097 19.9699 7.70349C20.0421 7.92598 19.9819 8.17025 19.8144 8.33357L15.936 12.1146C15.5713 12.4701 15.4049 12.9823 15.4909 13.4843L16.406 18.822C16.4455 19.0526 16.3508 19.2857 16.1615 19.4231C15.9722 19.5607 15.7213 19.5787 15.5142 19.4698L10.7198 16.9498C10.269 16.7128 9.73044 16.7128 9.27955 16.9499L4.4856 19.4698C4.27849 19.5787 4.02757 19.5605 3.83832 19.423C3.64903 19.2855 3.55428 19.0524 3.5938 18.8219L4.50934 13.4845C4.59548 12.9824 4.42904 12.4701 4.06425 12.1145L0.185631 8.33361C0.0181296 8.17029 -0.0422081 7.92602 0.0300998 7.70354C0.102408 7.48105 0.294742 7.31891 0.526273 7.28519L5.88631 6.50603C6.39036 6.43275 6.82611 6.11617 7.05156 5.6594L9.44851 0.802551Z" fill="#3888FF"/>
</svg>
