<svg width="14" height="12" viewBox="0 0 14 12" fill="none" xmlns="http://www.w3.org/2000/svg">
<path d="M5.22296 11.7433C4.61755 11.7433 3.99441 11.6943 3.36754 11.5961C2.26343 11.4228 1.14576 10.8453 0.829495 10.6723L0 10.2188L0.898068 9.92349C1.87977 9.60071 2.47695 9.40043 3.21619 9.08684C2.47599 8.72838 1.90551 8.08356 1.6309 7.25L1.42198 6.61575L1.5933 6.64192C1.43084 6.47818 1.30256 6.31198 1.20312 6.16084C0.849469 5.62369 0.662229 4.96733 0.702069 4.40486L0.741376 3.85126L1.07281 3.97964C0.932995 3.71561 0.831952 3.43362 0.772565 3.13808C0.627836 2.41731 0.748959 1.65158 1.11372 0.981979L1.40243 0.45198L1.78855 0.915756C3.00972 2.3827 4.55645 3.2529 6.39222 3.50764C6.31724 2.99078 6.37342 2.49197 6.55938 2.04486C6.77588 1.52426 7.16104 1.08281 7.67288 0.768142C8.24133 0.418762 8.93069 0.249465 9.61396 0.291442C10.3389 0.335983 10.9971 0.607604 11.5198 1.07747C11.7751 1.01114 11.9632 0.940322 12.2174 0.844619C12.3703 0.787048 12.5438 0.721679 12.7608 0.646911L13.5606 0.371337L13.0391 1.86093C13.0735 1.85805 13.1089 1.85559 13.146 1.85399L14.0001 1.81532L13.4953 2.50522C13.4663 2.54474 13.4589 2.55595 13.4487 2.57144C13.408 2.63275 13.3574 2.70901 12.6645 3.63422C12.491 3.86589 12.4044 4.16763 12.4205 4.48401C12.4819 5.68628 12.3344 6.77405 11.9819 7.71698C11.6484 8.60907 11.1316 9.37448 10.4461 9.99196C9.59783 10.7559 8.51616 11.2789 7.231 11.5464C6.60061 11.6775 5.92364 11.7433 5.22296 11.7433Z" fill="#202131"/>
</svg>
