<svg width="15" height="9" viewBox="0 0 15 9" fill="none" xmlns="http://www.w3.org/2000/svg">
<path d="M14.3783 7.13189C13.9317 6.59622 13.4062 6.13905 12.9089 5.65359C12.4603 5.21601 12.432 4.96217 12.7926 4.45712C13.1862 3.90591 13.6095 3.37583 14.0067 2.82711C14.3774 2.31429 14.7564 1.80287 14.9515 1.18885C15.0752 0.798213 14.9658 0.625667 14.5652 0.557271C14.4962 0.545301 14.4248 0.54468 14.3546 0.54468L11.9779 0.541882C11.6852 0.537529 11.5234 0.665151 11.4199 0.924592C11.2801 1.27528 11.136 1.62566 10.9696 1.96406C10.5918 2.73135 10.1699 3.47299 9.57846 4.10099C9.44804 4.23949 9.30379 4.41453 9.08585 4.3424C8.8132 4.24291 8.73283 3.79367 8.73734 3.6418L8.73501 0.898632C8.68215 0.506751 8.59526 0.332028 8.20618 0.255859L5.73737 0.256326C5.40782 0.256326 5.24258 0.383636 5.06662 0.589759C4.96511 0.708831 4.93449 0.786088 5.1431 0.825572C5.55286 0.903295 5.78369 1.16849 5.84494 1.57933C5.94318 2.23579 5.93634 2.89488 5.87976 3.55397C5.86313 3.74642 5.83002 3.93839 5.75369 4.11809C5.63431 4.40054 5.44156 4.45805 5.18833 4.28426C4.95905 4.12695 4.79801 3.90497 4.64038 3.68206C4.04829 2.84545 3.57588 1.94323 3.19069 0.995165C3.07939 0.721267 2.88741 0.55525 2.59719 0.550742C1.88416 0.539394 1.17097 0.537529 0.457931 0.551364C0.0288981 0.559447 -0.0990346 0.767746 0.0756876 1.15667C0.8523 2.88415 1.71674 4.5636 2.84513 6.09351C3.42448 6.87867 4.08963 7.57181 4.94895 8.06302C5.92282 8.61983 6.97115 8.7874 8.07529 8.73579C8.59231 8.71154 8.7476 8.57708 8.77154 8.06178C8.7877 7.70922 8.82765 7.35869 9.0016 7.04189C9.17228 6.731 9.43079 6.67177 9.72878 6.86515C9.87785 6.96199 10.0035 7.08526 10.1221 7.21521C10.4131 7.53357 10.6936 7.86156 10.9957 8.16919C11.3745 8.5547 11.8233 8.78243 12.3875 8.73595L14.5719 8.73642C14.9238 8.71341 15.1063 8.28189 14.9042 7.88908C14.7623 7.61393 14.5761 7.36895 14.3783 7.13189Z" fill="#72738E"/>
</svg>
